<svg width="32" height="32" viewBox="0 0 32 32" fill="none" xmlns="http://www.w3.org/2000/svg">
<circle cx="16" cy="24" r="3.5" fill="white" stroke="#2F3438"/>
<mask id="path-2-inside-1_298_11019" fill="white">
<path fill-rule="evenodd" clip-rule="evenodd" d="M19.6601 9.02447C19.6601 9.01632 19.6602 9.00817 19.6602 9C19.6602 7.34315 18.317 6 16.6602 6C15.0864 6 13.7956 7.21186 13.6702 8.75333C6.3746 10.3384 5.55615 18.9707 6.16006 23.5H26.6601C27.0916 19.185 26.108 11.1461 19.6601 9.02447Z"/>
</mask>
<path fill-rule="evenodd" clip-rule="evenodd" d="M19.6601 9.02447C19.6601 9.01632 19.6602 9.00817 19.6602 9C19.6602 7.34315 18.317 6 16.6602 6C15.0864 6 13.7956 7.21186 13.6702 8.75333C6.3746 10.3384 5.55615 18.9707 6.16006 23.5H26.6601C27.0916 19.185 26.108 11.1461 19.6601 9.02447Z" fill="white"/>
<path d="M19.6601 9.02447L18.6601 9.01652L18.6543 9.74628L19.3475 9.97437L19.6601 9.02447ZM13.6702 8.75333L13.8825 9.73053L14.6067 9.57317L14.6669 8.83445L13.6702 8.75333ZM6.16006 23.5L5.16883 23.6322L5.28454 24.5H6.16006V23.5ZM26.6601 23.5V24.5H27.5651L27.6551 23.5995L26.6601 23.5ZM18.6602 9C18.6602 9.00552 18.6601 9.01102 18.6601 9.01652L20.66 9.03243C20.6601 9.02162 20.6602 9.01081 20.6602 9H18.6602ZM16.6602 7C17.7647 7 18.6602 7.89543 18.6602 9H20.6602C20.6602 6.79086 18.8693 5 16.6602 5V7ZM14.6669 8.83445C14.7504 7.80784 15.6115 7 16.6602 7V5C14.5613 5 12.8408 6.61589 12.6734 8.67221L14.6669 8.83445ZM7.15129 23.3678C6.86395 21.2128 6.92128 18.091 7.89482 15.3581C8.85713 12.6569 10.6683 10.4289 13.8825 9.73053L13.4578 7.77613C9.37646 8.66287 7.13062 11.5435 6.0108 14.687C4.9022 17.7989 4.85226 21.2579 5.16883 23.6322L7.15129 23.3678ZM26.6601 22.5H6.16006V24.5H26.6601V22.5ZM19.3475 9.97437C22.184 10.9077 23.8647 13.1438 24.7973 15.7739C25.7349 18.4179 25.8698 21.3524 25.665 23.4005L27.6551 23.5995C27.8818 21.3326 27.7407 18.0902 26.6824 15.1055C25.6191 12.107 23.5841 9.26288 19.9726 8.07457L19.3475 9.97437Z" fill="#2F3438" mask="url(#path-2-inside-1_298_11019)"/>
</svg>
