<svg width="101" height="42" viewBox="0 0 101 42" fill="none" xmlns="http://www.w3.org/2000/svg">
<rect width="101" height="42" rx="4" fill="#33C5EF"/>
<path d="M28.6094 13.9844V14.875C28.6094 15.8125 28.6094 17.0156 28.2969 18.5781H30.2812V19.5625H17.5625V18.5781H27.0625C27.3828 17.0312 27.3984 15.8984 27.3906 14.9844H19.1719V13.9844H28.6094ZM19.0781 21.9531V20.9688H28.6562V24.4688H20.3281V26.1094H29.0156V27.1094H19.0938V23.5H27.4375V21.9531H19.0781ZM35.5781 16.2812C35.5781 17.5859 36.2891 19.3047 37.7266 20.2734C39.1484 19.3281 39.8594 17.6484 39.8594 16.2812V14.5H41.0938V16.2812C41.0859 17.9766 42.0859 19.7422 43.9219 20.5156L43.2344 21.4531C41.875 20.8359 40.9375 19.6953 40.4688 18.3594C40.0156 19.7109 39.1094 20.9609 37.7188 21.6094C36.3047 20.9453 35.3906 19.6484 34.9453 18.2891C34.4688 19.6172 33.5156 20.8203 32.1875 21.4531L31.5312 20.5156C33.3047 19.7031 34.3438 17.8203 34.3594 16.2812V14.5H35.5781V16.2812ZM31.3906 25.3906V24.375H44.0938V25.3906H31.3906ZM56.7031 13.375V27.2656H55.4688V13.375H56.7031ZM45.3906 23.6562C49.1484 21.875 51.0703 19.2109 51.3438 15.8906H46.0312V14.8906H52.5938C52.5781 18.8828 50.7188 22.4219 46.0625 24.6562L45.3906 23.6562Z" fill="white"/>
<path d="M67.5 17L75 24.5L82.5 17" stroke="white"/>
</svg>
