<svg width="180" height="73" viewBox="0 0 180 73" fill="none" xmlns="http://www.w3.org/2000/svg">
<g filter="url(#filter0_d_365_8022)">
<rect x="10" y="7" width="160" height="54" rx="4" fill="#33C5EF"/>
</g>
<g filter="url(#filter1_d_365_8022)">
<path d="M66.1553 39.6484H51.6357V38.0488H57.8936V34.9551H53.2354V26.7285H55.1865V29.3301H62.5518V26.7285H64.5029V34.9551H59.8271V38.0488H66.1553V39.6484ZM62.5518 33.373V30.8945H55.1865V33.373H62.5518ZM80.165 28.6621V28.8467C80.1592 29.7314 80.1416 30.499 80.1123 31.1494C80.0889 31.7939 80.0332 32.5439 79.9453 33.3994C79.8574 34.249 79.7197 35.1719 79.5322 36.168L77.5635 35.957C77.7568 35.002 77.8975 34.1025 77.9854 33.2588C78.0791 32.4092 78.1348 31.6621 78.1523 31.0176C78.1758 30.373 78.1904 29.5996 78.1963 28.6973H68.7041V27.1328H80.165V28.6621ZM67.1924 37.9082H72.5361V32.3887H74.4697V37.9082H81.6768V39.5078H67.1924V37.9082ZM95.2822 29.2246H97.5146V30.8066H95.2822V34.3047H93.3311V25.6387H95.2822V29.2246ZM82.7666 26.957H86.5107V25.5508H88.4619V26.957H92.1885V28.4512H82.7666V26.957ZM83.5752 31.5449C83.5752 31.0234 83.7363 30.5664 84.0586 30.1738C84.3809 29.7812 84.835 29.4795 85.4209 29.2686C86.0127 29.0518 86.6982 28.9434 87.4775 28.9434C88.2568 28.9434 88.9395 29.0518 89.5254 29.2686C90.1113 29.4795 90.5625 29.7812 90.8789 30.1738C91.2012 30.5664 91.3623 31.0234 91.3623 31.5449C91.3623 32.0781 91.2012 32.541 90.8789 32.9336C90.5625 33.3262 90.1113 33.6279 89.5254 33.8389C88.9453 34.0439 88.2627 34.1465 87.4775 34.1465C86.6982 34.1465 86.0127 34.0439 85.4209 33.8389C84.835 33.6279 84.3809 33.3262 84.0586 32.9336C83.7363 32.541 83.5752 32.0781 83.5752 31.5449ZM84.8936 35.0078H95.2822V38.8398H86.8447V39.9648H95.7744V41.4238H84.9111V37.4863H93.3311V36.4316H84.8936V35.0078ZM85.4736 31.5449C85.4678 31.9258 85.6436 32.2188 86.001 32.4238C86.3584 32.6289 86.8506 32.7344 87.4775 32.7402C88.1045 32.7344 88.5967 32.6289 88.9541 32.4238C89.3174 32.2188 89.499 31.9258 89.499 31.5449C89.499 31.1758 89.3203 30.8857 88.9629 30.6748C88.6055 30.458 88.1221 30.3496 87.5127 30.3496C86.8799 30.3496 86.3789 30.4551 86.0098 30.666C85.6465 30.8711 85.4678 31.1641 85.4736 31.5449ZM104.774 33.2148H100.661V36.3086C101.587 36.2969 102.434 36.2676 103.201 36.2207C103.975 36.168 104.769 36.0742 105.583 35.9395L105.724 37.5215C104.739 37.6855 103.802 37.7969 102.911 37.8555C102.026 37.9082 101.013 37.9375 99.8701 37.9434H98.7803V31.6328H102.894V28.873H98.7627V27.291H104.774V33.2148ZM106.532 25.9727H108.325V31.7734H110.118V25.6738H111.981V41.5645H110.118V33.3555H108.325V40.7559H106.532V25.9727ZM128.382 39.6309H113.862V38.0312H117.22V34.0146C116.575 33.6455 116.074 33.1797 115.717 32.6172C115.365 32.0547 115.192 31.4277 115.198 30.7363C115.198 29.9043 115.447 29.1719 115.945 28.5391C116.449 27.9004 117.149 27.4082 118.046 27.0625C118.942 26.7109 119.956 26.5352 121.087 26.5352C122.224 26.5352 123.24 26.7109 124.137 27.0625C125.039 27.4082 125.742 27.9004 126.246 28.5391C126.756 29.1719 127.011 29.9043 127.011 30.7363C127.017 31.416 126.847 32.0312 126.501 32.582C126.155 33.1328 125.669 33.5957 125.042 33.9707V38.0312H128.382V39.6309ZM117.114 30.7363C117.114 31.2695 117.278 31.7383 117.606 32.1426C117.94 32.541 118.406 32.8486 119.004 33.0654C119.607 33.2822 120.302 33.3906 121.087 33.3906C121.872 33.3906 122.566 33.2822 123.17 33.0654C123.779 32.8486 124.251 32.541 124.585 32.1426C124.925 31.7383 125.095 31.2695 125.095 30.7363C125.095 30.1973 124.925 29.7256 124.585 29.3213C124.251 28.917 123.779 28.6094 123.17 28.3984C122.566 28.1875 121.872 28.082 121.087 28.082C120.296 28.082 119.599 28.1875 118.995 28.3984C118.397 28.6094 117.935 28.917 117.606 29.3213C117.278 29.7197 117.114 30.1914 117.114 30.7363ZM123.056 38.0312V34.7178C122.435 34.8525 121.778 34.9199 121.087 34.9199C120.425 34.9199 119.78 34.8555 119.153 34.7266V38.0312H123.056Z" fill="white"/>
</g>
<defs>
<filter id="filter0_d_365_8022" x="0.588236" y="0.0980396" width="178.824" height="72.8235" filterUnits="userSpaceOnUse" color-interpolation-filters="sRGB">
<feFlood flood-opacity="0" result="BackgroundImageFix"/>
<feColorMatrix in="SourceAlpha" type="matrix" values="0 0 0 0 0 0 0 0 0 0 0 0 0 0 0 0 0 0 127 0" result="hardAlpha"/>
<feOffset dy="2.5098"/>
<feGaussianBlur stdDeviation="4.70588"/>
<feComposite in2="hardAlpha" operator="out"/>
<feColorMatrix type="matrix" values="0 0 0 0 0 0 0 0 0 0 0 0 0 0 0 0 0 0 0.1 0"/>
<feBlend mode="normal" in2="BackgroundImageFix" result="effect1_dropShadow_365_8022"/>
<feBlend mode="normal" in="SourceGraphic" in2="effect1_dropShadow_365_8022" result="shape"/>
</filter>
<filter id="filter1_d_365_8022" x="42.224" y="18.6488" width="95.5696" height="34.8372" filterUnits="userSpaceOnUse" color-interpolation-filters="sRGB">
<feFlood flood-opacity="0" result="BackgroundImageFix"/>
<feColorMatrix in="SourceAlpha" type="matrix" values="0 0 0 0 0 0 0 0 0 0 0 0 0 0 0 0 0 0 127 0" result="hardAlpha"/>
<feOffset dy="2.5098"/>
<feGaussianBlur stdDeviation="4.70588"/>
<feComposite in2="hardAlpha" operator="out"/>
<feColorMatrix type="matrix" values="0 0 0 0 0 0 0 0 0 0 0 0 0 0 0 0 0 0 0.1 0"/>
<feBlend mode="normal" in2="BackgroundImageFix" result="effect1_dropShadow_365_8022"/>
<feBlend mode="normal" in="SourceGraphic" in2="effect1_dropShadow_365_8022" result="shape"/>
</filter>
</defs>
</svg>
