<svg width="15" height="4" viewBox="0 0 15 4" fill="none" xmlns="http://www.w3.org/2000/svg">
<path d="M1.73438 3.43359C0.894531 3.43359 0.201172 2.75 0.210938 1.91016C0.201172 1.08984 0.894531 0.416016 1.73438 0.40625C2.54492 0.416016 3.23828 1.08984 3.23828 1.91016C3.23828 2.75 2.54492 3.43359 1.73438 3.43359ZM5.66016 1.91016C5.65039 1.08984 6.34375 0.416016 7.18359 0.40625C7.99414 0.416016 8.6875 1.08984 8.6875 1.91016C8.6875 2.75 7.99414 3.43359 7.18359 3.43359C6.34375 3.43359 5.65039 2.75 5.66016 1.91016ZM11.1094 1.91016C11.0996 1.08984 11.793 0.416016 12.6328 0.40625C13.4434 0.416016 14.1367 1.08984 14.1367 1.91016C14.1367 2.75 13.4434 3.43359 12.6328 3.43359C11.793 3.43359 11.0996 2.75 11.1094 1.91016Z" fill="#2F3438"/>
</svg>
