<svg width="26" height="24" viewBox="0 0 26 24" fill="none" xmlns="http://www.w3.org/2000/svg">
<path d="M12.1156 0.676338C12.4908 -0.0348082 13.5092 -0.0348074 13.8844 0.676339L17.0496 6.67547C17.1943 6.94972 17.458 7.14132 17.7636 7.19419L24.4472 8.35062C25.2395 8.4877 25.5542 9.45634 24.9938 10.0329L20.2664 14.897C20.0503 15.1194 19.9495 15.4294 19.9937 15.7363L20.9592 22.4502C21.0737 23.2461 20.2497 23.8447 19.5281 23.4899L13.4412 20.497C13.163 20.3601 12.837 20.3601 12.5588 20.497L6.47187 23.4899C5.75032 23.8447 4.92635 23.2461 5.0408 22.4502L6.00632 15.7363C6.05045 15.4294 5.94972 15.1194 5.73361 14.897L1.00619 10.0329C0.445796 9.45634 0.760525 8.4877 1.55281 8.35062L8.23642 7.19419C8.54195 7.14132 8.80568 6.94971 8.95037 6.67547L12.1156 0.676338Z" fill="#33C5EF"/>
</svg>
